<svg xmlns="http://www.w3.org/2000/svg" viewBox="0 0 48 48" width="48" height="48">
  <defs>
    <style>
      .bg-tile {
        fill: #050816;
        fill-opacity: 0.85;
        stroke: #2ECC71;
        stroke-width: 1.2;
        transition: all 0.3s ease;
      }
      .icon-group {
        animation: float-icon 3s infinite ease-in-out;
      }
      svg:hover .bg-tile {
        fill: #0A122E;
        stroke: #57F287;
        filter: url(#glow);
      }
      @keyframes float-icon {
        0%, 100% { transform: translateY(0px); }
        50% { transform: translateY(-2px); }
      }
    </style>
    <filter id="glow" x="-20%" y="-20%" width="140%" height="140%">
      <feGaussianBlur stdDeviation="2" result="blur" />
      <feMerge>
        <feMergeNode in="blur" />
        <feMergeNode in="SourceGraphic" />
      </feMerge>
    </filter>
  </defs>
  <g class="icon-group">
    <!-- Card Glass Frame -->
    <rect class="bg-tile" x="1.5" y="1.5" width="45" height="45" rx="6" />
    
    <path d="M 16 16 h 4 v 1 h -4 Z M 24 16 h 4 v 1 h -4 Z M 16 17 h 1 v 1 h -1 Z M 19 17 h 1 v 1 h -1 Z M 24 17 h 1 v 1 h -1 Z M 27 17 h 1 v 1 h -1 Z M 16 18 h 1 v 1 h -1 Z M 19 18 h 1 v 1 h -1 Z M 24 18 h 1 v 1 h -1 Z M 27 18 h 1 v 1 h -1 Z M 16 19 h 1 v 1 h -1 Z M 19 19 h 1 v 1 h -1 Z M 24 19 h 1 v 1 h -1 Z M 27 19 h 1 v 1 h -1 Z M 20 20 h 4 v 1 h -4 Z M 28 20 h 4 v 1 h -4 Z M 20 21 h 1 v 1 h -1 Z M 23 21 h 1 v 1 h -1 Z M 28 21 h 1 v 1 h -1 Z M 31 21 h 1 v 1 h -1 Z M 20 22 h 1 v 1 h -1 Z M 23 22 h 1 v 1 h -1 Z M 28 22 h 1 v 1 h -1 Z M 31 22 h 1 v 1 h -1 Z M 20 23 h 1 v 1 h -1 Z M 23 23 h 1 v 1 h -1 Z M 28 23 h 1 v 1 h -1 Z M 31 23 h 1 v 1 h -1 Z M 16 24 h 4 v 1 h -4 Z M 24 24 h 4 v 1 h -4 Z M 16 25 h 1 v 1 h -1 Z M 19 25 h 1 v 1 h -1 Z M 24 25 h 1 v 1 h -1 Z M 27 25 h 1 v 1 h -1 Z M 16 26 h 1 v 1 h -1 Z M 19 26 h 1 v 1 h -1 Z M 24 26 h 1 v 1 h -1 Z M 27 26 h 1 v 1 h -1 Z M 16 27 h 1 v 1 h -1 Z M 19 27 h 1 v 1 h -1 Z M 24 27 h 1 v 1 h -1 Z M 27 27 h 1 v 1 h -1 Z M 20 28 h 4 v 1 h -4 Z M 28 28 h 4 v 1 h -4 Z M 20 29 h 1 v 1 h -1 Z M 23 29 h 1 v 1 h -1 Z M 28 29 h 1 v 1 h -1 Z M 31 29 h 1 v 1 h -1 Z M 20 30 h 1 v 1 h -1 Z M 23 30 h 1 v 1 h -1 Z M 28 30 h 1 v 1 h -1 Z M 31 30 h 1 v 1 h -1 Z M 20 31 h 1 v 1 h -1 Z M 23 31 h 1 v 1 h -1 Z M 28 31 h 1 v 1 h -1 Z M 31 31 h 1 v 1 h -1 Z" fill="#57F287" />
    <path d="M 17 18 h 2 v 1 h -2 Z M 25 18 h 2 v 1 h -2 Z M 17 19 h 2 v 1 h -2 Z M 25 19 h 2 v 1 h -2 Z M 21 22 h 2 v 1 h -2 Z M 29 22 h 2 v 1 h -2 Z M 21 23 h 2 v 1 h -2 Z M 29 23 h 2 v 1 h -2 Z M 17 26 h 2 v 1 h -2 Z M 25 26 h 2 v 1 h -2 Z M 17 27 h 2 v 1 h -2 Z M 25 27 h 2 v 1 h -2 Z M 21 30 h 2 v 1 h -2 Z M 29 30 h 2 v 1 h -2 Z M 21 31 h 2 v 1 h -2 Z M 29 31 h 2 v 1 h -2 Z" fill="#00C896" />
    <path d="M 17 17 h 2 v 1 h -2 Z M 25 17 h 2 v 1 h -2 Z M 21 21 h 2 v 1 h -2 Z M 29 21 h 2 v 1 h -2 Z M 17 25 h 2 v 1 h -2 Z M 25 25 h 2 v 1 h -2 Z M 21 29 h 2 v 1 h -2 Z M 29 29 h 2 v 1 h -2 Z" fill="#FFFFFF" />

    <!-- Cyber corner ticks -->
    <rect x="3" y="3" width="1.5" height="1.5" fill="#57F287" opacity="0.4" />
    <rect x="43.5" y="43.5" width="1.5" height="1.5" fill="#57F287" opacity="0.4" />
  </g>
</svg>
